<?xml version="1.0" encoding="utf-8"?>
<!-- Svg Vector Icons : http://www.onlinewebfonts.com/icon -->
<!DOCTYPE svg PUBLIC "-//W3C//DTD SVG 1.1//EN" "http://www.w3.org/Graphics/SVG/1.1/DTD/svg11.dtd">
<svg version="1.1" xmlns="http://www.w3.org/2000/svg" xmlns:xlink="http://www.w3.org/1999/xlink" x="0px" y="0px" viewBox="0 0 1000 1000" enable-background="new 0 0 1000 1000" xml:space="preserve">
<metadata> Svg Vector Icons : http://www.onlinewebfonts.com/icon </metadata>
<g><g transform="translate(0.000000,511.000000) scale(0.100000,-0.100000)"><path d="M3841.6,3716.2L2697.7,2572.2l340.6-340.6l338.4-338.4l552.4,552.4c303.8,303.8,559.3,552.4,568.5,552.4c11.5,0,18.4-725,18.4-1611.2V-224.3h483.4h483.3v1611.2c0,886.2,4.6,1611.2,11.5,1611.2c6.9,0,262.4-248.6,570.8-552.4l557-552.4l340.6,340.6l338.4,338.3L6157.1,3716.2c-630.7,630.7-1150.8,1146.2-1157.7,1146.2S4472.3,4346.8,3841.6,3716.2z"/><path d="M833.3-762.9c-292.3-82.9-511-267-642.2-543.2l-82.9-172.6l-6.9-1137c-4.6-734.2,2.3-1178.4,18.4-1252.1c76-359.1,379.8-667.5,738.8-750.4c140.4-32.2,8141.1-32.2,8281.5,0c361.3,82.9,656,384.4,738.8,757.3c18.4,92.1,25.3,439.6,18.4,1254.4l-6.9,1127.8l-82.9,172.6c-108.2,223.3-257.8,372.9-481.1,481.1l-172.6,82.9l-4108.5,4.6C1797.7-735.3,916.2-739.9,833.3-762.9z M6606-2208.4c154.2-39.1,310.7-200.3,349.9-359.1c43.7-181.8,0-329.1-138.1-465c-204.9-207.1-485.6-207.1-690.5,0c-207.1,204.9-207.1,485.6,0,690.5C6272.2-2194.6,6408-2157.7,6606-2208.4z M8079-2208.4c154.2-39.1,310.7-200.3,349.9-359.1c43.7-181.8,0-329.1-138.1-465c-204.9-207.1-485.7-207.1-690.5,0c-207.2,204.9-207.2,485.6,0,690.5C7745.3-2194.6,7881.1-2157.7,8079-2208.4z"/></g></g>
</svg>